<?xml version="1.0" standalone="no"?>
<!DOCTYPE svg PUBLIC "-//W3C//DTD SVG 20010904//EN"
 "http://www.w3.org/TR/2001/REC-SVG-20010904/DTD/svg10.dtd">
<svg version="1.0" xmlns="http://www.w3.org/2000/svg"
 width="2480.000000pt" height="2480.000000pt" viewBox="0 0 2480.000000 2480.000000"
 preserveAspectRatio="xMidYMid meet">

<g transform="translate(0.000000,2480.000000) scale(0.100000,-0.100000)"
fill="#000000" stroke="none">
<path d="M12335 21646 c-33 -8 -105 -31 -160 -51 -81 -30 -121 -39 -210 -45
-175 -13 -282 -43 -435 -121 -201 -102 -401 -304 -512 -515 -111 -211 -209
-587 -254 -974 -20 -176 -15 -475 11 -615 37 -206 157 -627 237 -835 95 -247
246 -522 432 -785 201 -286 218 -359 176 -743 -24 -225 -47 -298 -110 -363
-30 -31 -64 -53 -102 -67 -68 -26 -340 -57 -366 -43 -9 5 -48 32 -86 60 -88
65 -179 94 -383 123 -135 19 -166 21 -251 11 -53 -6 -137 -24 -187 -39 -129
-38 -147 -42 -280 -53 -137 -12 -275 -47 -483 -120 -166 -59 -233 -65 -325
-31 -105 39 -136 67 -254 231 -61 85 -132 174 -159 199 -26 25 -64 63 -83 85
-20 21 -54 57 -75 80 -22 22 -67 76 -99 120 -33 44 -174 193 -314 332 -220
218 -266 259 -341 302 -169 98 -180 102 -294 104 -95 2 -111 -1 -208 -34 -247
-85 -451 -126 -677 -136 -185 -8 -275 13 -457 107 -131 68 -336 121 -471 123
-89 1 -149 -19 -217 -74 l-37 -30 -108 12 c-93 11 -119 10 -187 -4 -119 -24
-179 -58 -271 -151 -123 -123 -200 -289 -242 -520 -25 -132 -24 -484 1 -620
45 -247 129 -412 295 -576 101 -101 217 -176 339 -220 193 -70 343 -83 572
-50 163 23 233 22 308 -4 97 -34 185 -140 217 -260 24 -88 16 -205 -19 -303
-96 -263 -331 -677 -677 -1193 -335 -500 -515 -724 -774 -963 -253 -233 -443
-370 -850 -617 -457 -277 -641 -445 -725 -662 -40 -103 -60 -226 -60 -368 0
-208 47 -378 144 -524 88 -132 184 -214 399 -340 54 -31 160 -107 237 -169
138 -111 242 -180 402 -267 46 -25 106 -68 134 -95 90 -90 93 -177 14 -387
-59 -158 -73 -226 -73 -358 0 -96 3 -125 23 -175 46 -121 136 -216 255 -271
90 -41 150 -56 374 -89 378 -57 465 -112 755 -478 65 -82 155 -187 202 -233
219 -220 506 -379 817 -454 272 -66 569 -85 1172 -76 764 11 922 -11 1451
-203 397 -144 671 -271 830 -384 95 -67 177 -138 439 -377 255 -232 586 -518
674 -580 144 -103 288 -159 513 -200 294 -53 607 -76 802 -60 72 6 138 13 146
15 46 14 190 22 250 14 102 -12 159 -46 285 -168 61 -59 151 -141 201 -183
177 -149 222 -223 270 -442 110 -501 239 -873 450 -1296 115 -231 167 -320
236 -402 150 -181 434 -281 793 -281 215 0 339 25 766 154 371 111 523 172
909 361 384 188 462 230 730 399 41 26 156 95 255 154 99 59 198 120 220 135
22 15 87 53 144 85 95 53 148 89 330 230 36 28 79 59 97 70 45 28 140 101 200
155 29 25 84 72 124 105 152 126 282 254 400 391 36 42 83 97 105 122 23 26
53 64 69 85 15 21 35 45 45 55 18 17 66 86 136 197 22 34 50 75 63 91 37 47
89 125 118 179 15 28 44 72 65 99 22 27 39 52 39 56 0 4 21 37 48 73 126 175
269 429 357 632 26 61 74 162 106 225 32 63 66 144 75 179 9 36 36 114 59 175
24 61 53 156 64 211 11 55 36 147 56 205 20 58 52 168 71 245 20 77 45 163 55
190 23 62 25 190 4 261 -30 101 -134 223 -242 283 -32 18 -91 56 -131 86 -80
58 -446 261 -727 403 -316 159 -475 264 -837 553 -203 163 -267 219 -324 286
-53 62 -65 98 -130 411 l-36 174 11 236 c14 310 1 573 -40 812 -30 172 -72
330 -156 583 -62 189 -92 261 -170 415 -197 384 -490 1001 -550 1157 -41 107
-297 614 -383 758 -82 137 -138 211 -267 347 -59 63 -148 162 -197 220 -49 58
-140 157 -201 220 -125 128 -126 130 -161 237 -40 122 -227 481 -335 642 -119
178 -221 296 -371 429 -327 291 -898 713 -1105 819 -62 31 -139 78 -172 104
-64 53 -209 225 -241 290 -13 25 -29 93 -41 177 -21 145 -38 196 -124 379 -80
170 -137 244 -323 421 -256 244 -365 399 -566 802 -144 289 -187 410 -221 615
-13 83 -29 166 -35 185 -50 165 -98 439 -140 790 -12 104 -59 260 -93 312 -14
21 -47 46 -92 68 -66 33 -76 35 -180 37 -66 2 -134 -3 -170 -11z m269 -225
c34 -22 69 -53 78 -68 9 -15 37 -96 62 -179 46 -148 66 -263 66 -374 0 -30 11
-109 25 -175 14 -66 39 -201 56 -300 57 -345 106 -489 294 -870 158 -322 312
-548 515 -760 121 -126 152 -164 204 -255 50 -85 96 -197 162 -397 59 -177 68
-195 127 -264 21 -24 53 -79 72 -122 72 -169 197 -294 410 -412 165 -91 771
-574 1007 -804 209 -202 326 -373 519 -761 59 -119 115 -222 125 -230 9 -8 36
-44 59 -80 41 -64 70 -97 155 -175 23 -22 96 -110 160 -195 64 -85 167 -213
227 -283 64 -74 137 -173 174 -235 89 -150 348 -668 394 -787 21 -55 69 -167
107 -248 94 -203 465 -944 521 -1040 30 -53 69 -150 121 -305 83 -251 127
-422 150 -582 16 -111 34 -462 41 -790 5 -218 19 -392 39 -489 8 -36 19 -97
25 -134 17 -99 46 -168 113 -269 72 -107 152 -195 251 -275 40 -32 101 -82
135 -111 35 -29 96 -69 135 -88 40 -19 78 -41 85 -48 11 -11 7 -370 -22 -2092
l-36 -2079 -127 -123 c-143 -138 -495 -443 -720 -623 -171 -137 -294 -212
-668 -410 -556 -293 -657 -335 -1205 -504 -326 -99 -364 -108 -530 -112 -138
-4 -169 -2 -280 21 -294 60 -267 35 -475 443 -99 195 -182 372 -205 438 -21
61 -65 185 -98 276 -83 228 -132 433 -186 774 -34 210 -51 297 -65 315 -34 46
-77 68 -153 75 -82 8 -181 36 -216 60 -31 22 -137 234 -120 240 129 45 180 66
280 116 l120 58 70 -36 c69 -37 71 -39 206 -228 74 -104 200 -281 280 -393 79
-111 147 -200 150 -198 3 3 -40 81 -95 173 -56 93 -124 213 -153 268 -171 325
-206 386 -271 459 l-29 34 49 21 c60 26 84 26 136 2 79 -36 126 -92 335 -406
40 -60 130 -189 200 -285 70 -96 212 -296 315 -445 235 -338 378 -535 383
-530 6 6 -34 106 -80 198 -49 98 -214 378 -436 739 -162 264 -329 501 -510
723 l-82 100 83 7 c255 20 329 7 568 -98 205 -90 374 -204 543 -365 100 -96
136 -138 183 -217 80 -130 208 -332 318 -500 78 -118 103 -148 183 -215 65
-56 90 -72 83 -56 -5 13 -18 48 -30 77 -12 29 -120 251 -241 494 -276 554
-317 611 -615 857 -90 75 -145 109 -300 190 -110 58 -221 109 -265 121 -99 28
-257 35 -485 22 -248 -15 -343 -40 -485 -126 -163 -99 -479 -253 -624 -303
-190 -66 -237 -79 -477 -127 l-216 -44 -148 14 c-81 8 -150 12 -154 10 -21
-13 -479 54 -619 90 -79 21 -148 69 -282 199 -63 61 -144 134 -180 161 -84 63
-110 86 -450 400 -336 309 -366 335 -445 379 -77 43 -385 183 -540 245 -172
69 -644 234 -755 264 -189 51 -575 79 -925 67 -444 -15 -977 1 -1170 34 -285
50 -563 193 -766 395 -65 65 -137 154 -228 282 -73 103 -160 216 -192 252
l-59 64 25 49 c76 152 94 477 36 634 -28 73 -108 187 -163 232 -87 72 -231
112 -398 111 -95 0 -112 -3 -183 -32 -43 -18 -81 -32 -85 -32 -20 1 192 146
272 187 56 28 310 70 491 79 132 8 190 -2 525 -87 319 -81 334 -86 585 -210
280 -137 365 -199 482 -351 104 -134 137 -155 265 -170 l93 -11 160 51 c189
61 242 72 344 72 110 0 383 -33 652 -79 366 -62 498 -75 794 -75 143 -1 323 5
400 12 422 39 512 54 644 108 210 85 562 291 886 518 320 224 448 286 925 448
333 113 364 119 620 128 179 6 274 15 465 44 445 67 461 71 650 134 l110 37
-145 3 c-91 2 -226 -5 -365 -18 -274 -25 -627 -50 -720 -50 l-70 1 35 30 c188
163 573 400 862 530 139 63 291 139 287 143 -8 7 -237 -44 -304 -67 -123 -43
-297 -117 -385 -164 -109 -58 -305 -183 -371 -235 -28 -22 -53 -38 -55 -35 -9
9 38 91 94 162 94 120 201 363 287 647 78 260 138 686 105 749 -15 28 -65 25
-85 -4 -8 -13 -28 -85 -44 -161 -16 -76 -32 -141 -36 -144 -13 -12 -213 208
-283 311 -85 125 -138 230 -209 411 -124 320 -157 589 -112 926 17 130 66 297
144 490 41 103 75 192 75 198 0 21 19 22 65 2 26 -11 79 -25 118 -31 40 -5
128 -22 197 -36 142 -28 189 -25 350 23 129 39 145 68 42 79 -85 9 -293 43
-417 67 -106 21 -115 25 -235 102 -221 141 -382 261 -466 347 -250 260 -580
772 -684 1064 -93 263 -142 548 -143 825 0 169 2 194 26 285 23 84 27 120 27
236 0 108 3 139 15 149 11 9 37 9 120 0 115 -13 175 -8 175 15 0 8 -12 22 -27
31 -16 10 -62 38 -103 64 -41 26 -95 59 -120 74 -141 83 -260 188 -332 291
-145 208 -223 340 -318 540 -85 179 -96 206 -174 465 -123 405 -151 544 -150
750 2 277 64 657 151 925 60 184 74 215 130 288 125 165 226 258 344 318 58
29 209 82 267 94 19 4 30 11 26 17 -15 25 71 -3 130 -41z m-6892 -3675 c118
-23 229 -62 298 -106 192 -120 335 -163 545 -162 216 1 486 50 713 132 126 45
159 48 218 21 56 -25 203 -125 295 -199 76 -62 331 -316 525 -523 60 -64 136
-139 170 -167 88 -73 176 -166 235 -252 69 -97 173 -201 244 -241 31 -17 53
-35 48 -39 -28 -27 -596 -222 -899 -309 -78 -22 -243 -65 -367 -95 -243 -59
-350 -92 -425 -130 l-47 -24 -40 20 c-75 38 -120 83 -154 155 -112 231 -147
295 -187 341 l-44 50 52 54 c58 58 148 225 148 273 0 23 -3 25 -22 20 -53 -16
-218 -103 -274 -146 -68 -51 -209 -114 -419 -186 -138 -47 -142 -47 -260 -47
-188 1 -346 53 -446 146 l-46 43 13 655 c7 360 13 672 13 693 1 43 3 44 113
23z m4958 -1290 c132 -26 151 -36 192 -102 20 -32 37 -64 37 -69 1 -6 -83 -45
-186 -87 -104 -43 -219 -90 -258 -106 -112 -46 -557 -175 -917 -266 -338 -86
-687 -164 -1148 -256 -373 -75 -458 -99 -634 -179 l-68 -31 -19 24 c-27 35
-100 61 -128 47 -34 -18 -27 -64 15 -111 l36 -39 -38 -44 -39 -44 -35 24 c-37
24 -149 53 -207 53 -43 0 -81 -18 -89 -43 -9 -28 30 -60 98 -82 57 -19 158
-72 158 -83 0 -17 -248 -571 -319 -712 -158 -315 -438 -778 -771 -1275 -232
-345 -380 -533 -546 -695 -83 -80 -185 -173 -227 -208 l-77 -63 6 403 6 403
88 85 c113 109 290 304 367 406 135 178 457 653 640 944 206 327 307 512 377
686 71 179 149 295 262 388 127 105 228 144 551 216 339 76 888 246 1243 385
102 40 304 112 450 160 146 47 344 116 440 152 383 143 390 145 550 138 63 -2
149 -11 190 -19z m1315 -110 c34 -10 78 -38 130 -82 110 -91 141 -111 204
-127 l55 -14 36 -119 c108 -359 484 -987 725 -1212 70 -66 200 -156 288 -198
31 -16 57 -32 57 -36 0 -4 -14 -27 -31 -52 -36 -54 -133 -258 -178 -374 -64
-168 -96 -364 -108 -658 -8 -217 6 -349 62 -569 67 -269 163 -487 302 -682 75
-106 261 -314 323 -361 27 -21 44 -41 42 -51 -10 -50 -145 -388 -207 -521 -40
-85 -79 -173 -88 -195 -8 -22 -47 -106 -87 -187 -78 -162 -92 -177 -225 -245
-59 -30 -82 -37 -300 -88 -60 -14 -200 -56 -310 -92 -257 -85 -418 -167 -687
-346 l-208 -139 -34 21 c-19 12 -80 42 -137 66 -130 57 -303 172 -409 272 -89
84 -225 248 -279 337 -82 137 -126 298 -146 541 -8 99 -19 194 -24 211 l-9 31
80 22 c75 20 168 71 168 91 0 12 -49 15 -212 11 l-128 -4 -92 46 c-51 25 -120
57 -153 73 -75 35 -212 165 -337 319 -71 89 -104 141 -168 270 -44 88 -87 189
-95 225 -22 86 -101 250 -158 327 l-46 62 32 5 c18 3 100 15 182 26 83 12 188
32 235 45 47 14 99 25 115 25 46 0 168 37 257 77 61 28 81 34 88 24 4 -7 35
-41 69 -76 69 -70 147 -116 237 -139 33 -9 114 -38 180 -65 212 -87 408 -121
701 -121 137 0 200 5 289 21 63 12 114 25 114 29 0 16 -68 31 -184 40 -492 41
-676 68 -817 120 -43 17 -115 43 -158 60 -125 46 -161 66 -244 132 -53 42 -74
64 -65 69 7 4 123 42 257 84 135 42 267 86 295 97 123 48 406 236 406 270 0
17 -94 -10 -590 -169 -416 -133 -503 -163 -608 -214 -152 -75 -336 -116 -887
-200 -197 -30 -217 -31 -335 -21 -82 6 -149 18 -195 33 l-70 24 -6 70 c-9 90
-40 173 -81 212 -44 41 -109 83 -128 83 -18 0 -15 -44 14 -237 l15 -102 -34
-73 c-19 -40 -74 -129 -123 -197 -49 -68 -131 -191 -183 -275 -52 -83 -121
-180 -154 -216 -33 -36 -128 -146 -212 -245 -184 -219 -263 -297 -553 -541
-436 -367 -440 -369 -676 -512 -98 -60 -260 -160 -359 -222 -188 -119 -450
-259 -595 -317 -47 -19 -101 -43 -120 -55 -29 -17 -228 -53 -238 -44 -1 2 1
140 4 308 l7 305 71 11 c48 7 101 26 166 58 80 40 109 62 190 143 144 144 213
263 226 388 8 75 -16 170 -57 228 -57 79 -234 197 -339 225 l-45 12 95 86
c309 279 509 535 917 1172 414 647 519 842 764 1414 130 306 172 379 251 437
105 77 296 141 603 204 323 65 898 196 1100 250 94 25 213 55 265 67 52 11
154 36 225 54 72 18 175 41 230 50 107 17 203 47 355 111 84 36 881 339 1050
400 60 22 76 23 225 19 107 -2 177 -9 210 -20z m-3324 -3816 c86 -16 170 -63
231 -129 64 -69 95 -121 171 -291 97 -217 178 -349 312 -509 88 -105 159 -171
316 -297 198 -159 239 -221 290 -440 94 -403 189 -580 467 -876 64 -68 120
-138 136 -169 30 -60 34 -125 11 -168 -19 -37 -33 -39 -315 -47 -292 -8 -463
8 -825 81 -461 93 -758 122 -915 91 -76 -15 -221 -62 -352 -112 -46 -18 -48
-18 -90 3 -24 11 -112 80 -195 151 -173 149 -245 200 -423 299 -191 107 -255
138 -375 176 -177 58 -522 154 -620 172 -49 9 -105 20 -124 23 l-34 7 33 39
c19 21 91 75 160 121 239 157 405 289 1025 813 325 275 374 323 578 566 83
100 180 213 217 251 36 39 90 109 120 157 34 54 62 89 75 91 38 8 72 7 126 -3z"/>
<path d="M8357 15153 c-17 -16 -4 -42 36 -70 23 -17 76 -65 119 -106 42 -42
79 -73 82 -70 10 10 7 88 -5 124 -7 19 -23 46 -37 61 -41 44 -172 85 -195 61z"/>
<path d="M7820 15095 c-25 -31 -7 -49 95 -90 202 -82 282 -163 478 -486 34
-55 40 -61 49 -45 6 11 8 55 6 105 -4 77 -9 96 -49 176 -59 121 -179 245 -290
298 -105 51 -263 74 -289 42z"/>
</g>
</svg>
